<?xml version="1.0" standalone="no"?>
<!DOCTYPE svg PUBLIC "-//W3C//DTD SVG 20010904//EN"
 "http://www.w3.org/TR/2001/REC-SVG-20010904/DTD/svg10.dtd">
<svg version="1.0" xmlns="http://www.w3.org/2000/svg"
 width="96.000000pt" height="96.000000pt" viewBox="0 0 96.000000 96.000000"
 preserveAspectRatio="xMidYMid meet">
<metadata>
Created by potrace 1.11, written by Peter Selinger 2001-2013
</metadata>
<g transform="translate(0.000000,96.000000) scale(0.100000,-0.100000)"
fill="#000000" stroke="none">
<path d="M0 564 c0 -302 3 -395 12 -392 7 3 15 15 18 29 4 13 18 48 32 76 17
36 22 55 14 63 -5 5 -6 10 -1 10 5 0 1 6 -8 13 -17 12 -17 16 2 74 34 106 55
129 149 164 45 18 85 36 88 40 11 19 20 8 16 -20 -2 -16 1 -37 7 -48 9 -16 10
-14 11 12 1 27 2 28 14 13 21 -29 25 -21 7 15 -20 39 -22 123 -4 120 7 -2 12
0 12 5 -1 4 -1 20 0 36 1 24 3 27 16 16 12 -10 15 -9 15 4 0 13 8 16 33 13 39
-4 59 -15 52 -28 -4 -5 -1 -9 5 -9 6 0 10 -10 8 -22 -2 -16 -9 -22 -21 -20
-23 4 -47 -15 -46 -37 0 -11 3 -9 9 6 8 20 12 22 35 11 14 -6 25 -17 25 -23 0
-22 -70 -104 -92 -108 -17 -3 -15 -5 9 -6 17 0 35 4 39 10 4 8 9 7 15 -2 6
-10 9 -3 9 19 0 35 21 52 43 34 6 -5 46 -20 87 -32 78 -24 110 -39 110 -53 0
-4 9 -20 21 -36 27 -37 22 -78 -13 -104 -25 -19 -30 -19 -54 -7 -23 13 -27 13
-40 -5 -22 -30 -22 -202 1 -289 11 -43 11 -56 0 -79 -7 -15 -9 -27 -4 -27 17
0 69 43 63 52 -3 4 0 8 5 8 6 0 11 -5 11 -10 0 -7 7 -7 20 0 26 14 45 3 29
-16 -8 -10 -15 -11 -24 -4 -9 8 -15 8 -20 0 -3 -6 -11 -7 -17 -4 -7 5 -8 2 -3
-6 6 -10 4 -12 -8 -7 -10 3 -17 3 -17 -2 0 -4 65 -9 145 -10 l145 -2 0 481 0
480 -480 0 -480 0 0 -396z m322 181 c3 -14 1 -28 -3 -31 -5 -3 -9 9 -9 25 0
38 6 40 12 6z m214 -51 c-10 -14 -20 -23 -23 -20 -3 3 2 17 11 32 10 14 20 23
23 20 3 -3 -2 -17 -11 -32z m265 -383 c-6 -10 -7 -21 -4 -25 7 -6 -35 -195
-46 -208 -4 -4 -13 -3 -20 2 -12 7 -11 19 12 77 14 37 29 86 32 108 9 55 13
65 25 65 7 0 8 -6 1 -19z"/>
<path d="M380 744 c0 -4 7 -12 16 -18 12 -9 13 -17 5 -38 -6 -15 -6 -30 -2
-32 13 -9 22 66 9 81 -11 14 -28 18 -28 7z"/>
<path d="M398 523 c7 -3 16 -2 19 1 4 3 -2 6 -13 5 -11 0 -14 -3 -6 -6z"/>
<path d="M510 510 c-45 -7 -45 -7 15 -8 33 0 71 4 85 8 21 7 19 8 -15 8 -22
-1 -60 -4 -85 -8z"/>
<path d="M230 490 l-25 -8 28 -1 c15 -1 27 4 27 9 0 6 -1 10 -2 9 -2 -1 -14
-5 -28 -9z"/>
<path d="M270 491 c0 -4 11 -6 25 -3 14 2 25 6 25 8 0 2 -11 4 -25 4 -14 0
-25 -4 -25 -9z"/>
<path d="M535 493 c-38 -2 -74 -9 -80 -15 -7 -7 2 -9 30 -4 22 3 64 6 93 6 33
0 51 4 47 10 -3 6 -9 9 -13 8 -4 -1 -38 -4 -77 -5z"/>
<path d="M253 473 c-24 -2 -43 -7 -43 -11 0 -4 20 -6 45 -4 25 2 45 8 45 13 0
5 -1 8 -2 7 -2 -1 -22 -3 -45 -5z"/>
<path d="M310 471 c0 -4 11 -6 25 -3 14 2 25 6 25 8 0 2 -11 4 -25 4 -14 0
-25 -4 -25 -9z"/>
<path d="M245 435 c-22 -7 -32 -13 -23 -14 13 -1 18 -13 21 -53 l3 -53 2 57 2
56 63 10 c58 9 59 9 17 10 -25 0 -63 -5 -85 -13z"/>
<path d="M169 337 c-9 -12 -26 -48 -37 -80 -12 -32 -32 -77 -44 -100 l-22 -42
-5 29 c-8 41 -25 35 -32 -11 -3 -21 -10 -48 -17 -60 -7 -12 -12 -33 -12 -47
l0 -26 101 0 102 0 -9 88 c-5 48 -8 129 -7 180 1 50 1 92 0 92 -1 0 -9 -11
-18 -23z"/>
<path d="M416 309 c-3 -8 -7 -23 -9 -34 -3 -14 -5 -12 -6 8 -1 27 -3 28 -38
21 -21 -4 -38 -7 -39 -8 0 0 -10 -14 -22 -30 -20 -26 -22 -27 -22 -7 0 12 6
21 15 21 8 0 15 5 15 10 0 6 -9 10 -20 10 -13 0 -20 -7 -20 -19 0 -24 -16 -36
-26 -19 -4 6 -2 14 4 16 17 5 15 19 -4 19 -12 0 -14 -7 -10 -31 4 -16 11 -33
16 -36 17 -10 99 13 104 30 3 11 4 10 5 -4 1 -15 6 -17 32 -12 17 3 49 6 70 6
37 0 39 2 39 30 0 22 -5 30 -17 30 -10 0 -28 3 -40 6 -15 4 -24 1 -27 -7z m20
-46 c-11 -11 -17 4 -9 23 7 18 8 18 11 1 2 -10 1 -21 -2 -24z m21 5 c-3 -7 -5
-2 -5 12 0 14 2 19 5 13 2 -7 2 -19 0 -25z m33 12 c0 -11 -2 -20 -4 -20 -2 0
-6 9 -9 20 -3 11 -1 20 4 20 5 0 9 -9 9 -20z m-153 -22 c-3 -7 -5 -2 -5 12 0
14 2 19 5 13 2 -7 2 -19 0 -25z m53 12 c0 -11 -4 -20 -10 -20 -5 0 -10 9 -10
20 0 11 5 20 10 20 6 0 10 -9 10 -20z"/>
<path d="M260 95 c0 -27 3 -33 15 -28 10 3 15 1 13 -7 -2 -7 3 -15 11 -18 8
-3 11 0 7 7 -4 6 -3 11 3 11 5 0 12 -4 15 -9 3 -5 15 -7 25 -4 13 3 21 -1 24
-14 4 -16 5 -16 6 0 1 23 48 23 54 0 4 -17 5 -17 6 0 1 20 27 23 34 5 4 -9 6
-7 6 3 1 10 17 21 41 28 46 14 55 37 11 28 -15 -3 -32 -2 -37 2 -5 4 -33 3
-61 -2 -39 -6 -53 -13 -54 -25 0 -11 -2 -12 -6 -4 -2 6 -11 12 -19 12 -9 0
-12 5 -8 12 5 8 2 9 -9 5 -9 -3 -19 -2 -22 3 -4 6 -11 10 -16 10 -6 0 -7 -5
-3 -12 4 -7 3 -8 -5 -4 -6 4 -9 11 -6 16 3 4 -2 10 -10 14 -12 4 -15 -3 -15
-29z"/>
<path d="M400 30 c0 -5 5 -10 10 -10 6 0 10 5 10 10 0 6 -4 10 -10 10 -5 0
-10 -4 -10 -10z"/>
</g>
</svg>
